<svg width="71" height="11" viewBox="0 0 71 11" fill="none" xmlns="http://www.w3.org/2000/svg">
<g opacity="0.4" clip-path="url(#clip0_1090_1216)">
<path d="M70.689 10.3738C70.6829 10.3359 70.677 10.2984 70.6705 10.261C70.6315 10.0286 70.583 9.79888 70.5266 9.57234C70.4276 9.17658 70.3031 8.79032 70.1545 8.41623C70.0288 8.09943 69.8858 7.79124 69.727 7.49251C69.5228 7.10894 69.2926 6.74071 69.0382 6.39053C68.7263 5.96139 68.378 5.55934 67.9976 5.18886C67.8381 5.03316 67.6729 4.8829 67.5023 4.73893C67.133 4.42623 66.7383 4.1415 66.3227 3.88698C66.3263 3.8811 66.3294 3.8748 66.3331 3.86892C66.5235 3.54629 66.7145 3.22407 66.9049 2.90144C67.0912 2.58645 67.2774 2.27147 67.4636 1.95651C67.5977 1.73043 67.7315 1.50389 67.8647 1.27781C67.8964 1.2241 67.9214 1.16861 67.9402 1.11177C67.9923 0.953367 67.9946 0.786855 67.9528 0.632057C67.9421 0.593722 67.9292 0.556267 67.9135 0.51972C67.8978 0.483145 67.8796 0.447505 67.8588 0.413212C67.7876 0.295897 67.6858 0.1939 67.5579 0.11943C67.4448 0.053567 67.3184 0.014297 67.1888 0.00302202C67.1344 -0.00148798 67.0797 -0.00104798 67.0253 0.00436952C66.9804 0.00887952 66.9358 0.0170195 66.8915 0.0282945C66.7338 0.069352 66.5874 0.15419 66.4736 0.276922C66.4326 0.321142 66.3956 0.3699 66.3639 0.42358C66.2301 0.649657 66.0963 0.876202 65.9628 1.10228L65.4041 2.04721C65.2137 2.36986 65.0227 2.69205 64.8323 3.01471C64.8115 3.04988 64.7905 3.08508 64.7697 3.12075C64.7408 3.10945 64.7122 3.09817 64.6833 3.08734C63.6333 2.69475 62.494 2.47997 61.3031 2.47997C61.2706 2.47997 61.2383 2.47997 61.2055 2.48041C60.1467 2.49078 59.1295 2.67129 58.1804 2.9953C58.0707 3.03275 57.9622 3.07246 57.8545 3.11399C57.8351 3.08104 57.8152 3.0481 57.7961 3.01515C57.6057 2.69249 57.4147 2.3703 57.2243 2.04765C57.038 1.73269 56.8518 1.4177 56.6656 1.10272C56.5315 0.876642 56.3977 0.650125 56.2645 0.424047C56.2325 0.37034 56.1958 0.32161 56.1548 0.27739C56.041 0.15463 55.8945 0.069792 55.7369 0.0287345C55.6926 0.0174595 55.648 0.00934702 55.6029 0.00483702C55.5487 -0.000580482 55.494 -0.00104798 55.4396 0.00346202C55.3101 0.014297 55.1836 0.053567 55.0702 0.119897C54.9424 0.19434 54.8414 0.296337 54.7696 0.413652C54.7488 0.447945 54.7303 0.483612 54.7149 0.52016C54.6992 0.556707 54.6857 0.594162 54.6756 0.632525C54.6338 0.787295 54.6361 0.953807 54.688 1.11221C54.707 1.16908 54.7317 1.22457 54.7634 1.27828C54.8975 1.50436 55.0313 1.73087 55.1645 1.95695C55.351 2.27194 55.5372 2.58692 55.7235 2.90188C55.9139 3.22454 56.1046 3.54673 56.2951 3.86938C56.2965 3.87208 56.2984 3.8748 56.2998 3.8775C55.9156 4.11171 55.5501 4.37118 55.2052 4.655C54.9985 4.82515 54.7993 5.00337 54.6086 5.18974C54.2286 5.56022 53.8805 5.9623 53.5681 6.39144C53.3134 6.74162 53.0828 7.10938 52.8792 7.49342C52.7205 7.79215 52.5774 8.10034 52.4518 8.41714C52.3031 8.79122 52.1786 9.17749 52.0796 9.57324C52.0232 9.79979 51.9753 10.029 51.9357 10.2619C51.9293 10.2993 51.9234 10.3372 51.9175 10.3747C51.8962 10.5096 51.8782 10.6454 51.8631 10.7822H70.7418C70.7266 10.6454 70.7087 10.5096 70.6876 10.3747L70.689 10.3738Z" fill="white"/>
<path d="M66.213 8.22209C66.5907 7.97553 66.6457 7.40507 66.3355 6.94799C66.0256 6.49089 65.468 6.32025 65.0905 6.56681C64.7127 6.81341 64.6577 7.38384 64.9679 7.84092C65.2779 8.29802 65.8354 8.46869 66.213 8.22209Z" fill="black"/>
<path d="M57.6533 7.84252C57.9635 7.38541 57.9086 6.81498 57.5308 6.56842C57.153 6.32182 56.5957 6.49249 56.2855 6.94957C55.9756 7.40667 56.0305 7.9771 56.4081 8.22367C56.7858 8.47026 57.3434 8.2996 57.6533 7.84252Z" fill="black"/>
<path d="M42.5253 7.31561C42.5253 6.07349 43.4397 5.09359 44.5932 5.09359C45.7468 5.09359 46.5907 6.04588 46.5907 7.31561C46.5907 8.58532 45.7328 9.56522 44.5932 9.56522C43.4537 9.56522 42.5253 8.57154 42.5253 7.31561ZM38.5584 10.7797H40.1761V3.87908H38.5584V10.7797ZM38.3051 1.57427C38.3051 2.16772 38.7976 2.65076 39.3743 2.65076C39.9509 2.65076 40.4294 2.16772 40.4294 1.57427C40.4294 1.02221 39.9509 0.552978 39.3743 0.552978C38.7976 0.552978 38.3051 1.02221 38.3051 1.57427ZM31.9609 7.30181C31.9609 6.05969 32.8892 5.09359 34.0849 5.09359C35.2808 5.09359 36.2092 6.05969 36.2092 7.30181C36.2092 8.54393 35.2665 9.56522 34.0849 9.56522C32.9033 9.56522 31.9609 8.55773 31.9609 7.30181ZM30.3148 7.30181C30.3148 9.37201 31.9749 11.0006 34.0849 11.0006C36.1951 11.0006 37.855 9.37201 37.855 7.30181C37.855 5.23161 36.2232 3.65825 34.0849 3.65825C31.9469 3.65825 30.3148 5.24541 30.3148 7.30181ZM25.9401 10.7797H27.5578V7.16379C27.5578 5.72845 28.3313 5.09359 29.6257 5.09359C29.8647 5.09359 30.0478 5.10739 30.2164 5.14881V3.75486C30.0478 3.69967 29.7522 3.65825 29.4288 3.65825C27.2341 3.65825 25.9401 5.01078 25.9401 7.16379V10.7797ZM19.455 7.31561C19.455 6.07349 20.3694 5.09359 21.5229 5.09359C22.6765 5.09359 23.5204 6.04588 23.5204 7.31561C23.5204 8.58532 22.6625 9.56522 21.5229 9.56522C20.3835 9.56522 19.455 8.57154 19.455 7.31561ZM17.8092 7.31561C17.8092 9.31679 19.441 11.0006 21.3681 11.0006C22.17 11.0006 22.9015 10.6831 23.3376 10.1587H23.408V10.7797H25.0257V0.000915527H23.408V4.44494H23.3376C22.9155 3.9481 22.184 3.65825 21.3681 3.65825C19.4269 3.65825 17.8092 5.32822 17.8092 7.31561ZM10.7193 10.7797H12.337V6.73594C12.337 5.76987 12.9982 5.09359 13.9125 5.09359C14.8269 5.09359 15.4881 5.76987 15.4881 6.73594V10.7797H17.1058V6.73594C17.1058 5.0522 15.7413 3.65825 13.9125 3.65825C12.0838 3.65825 10.7193 5.0522 10.7193 6.73594V10.7797ZM3.29173 6.63933L5.03608 1.73988H5.12047L6.86483 6.63933H3.29173ZM0 10.7797H1.82874L2.7431 8.21269H7.41345L8.32781 10.7797H10.1566L6.09112 0.000915527H4.06543L0 10.7797ZM44.4384 11.0006C45.2403 11.0006 45.9717 10.6831 46.4079 10.1587H46.4783V10.7797H48.096V0.000915527H46.4783V4.44494H46.4079C45.9858 3.9481 45.2543 3.65825 44.4384 3.65825C42.4973 3.65825 40.8795 5.32822 40.8795 7.31561C40.8795 9.30298 42.5113 11.0006 44.4384 11.0006Z" fill="white"/>
</g>
<defs>
<clipPath id="clip0_1090_1216">
<rect width="70.7417" height="11" fill="white"/>
</clipPath>
</defs>
</svg>
