<svg width="68" height="10" viewBox="0 0 68 10" fill="none" xmlns="http://www.w3.org/2000/svg">
<g clip-path="url(#clip0_1093_1648)">
<path d="M18.5219 0.61734C18.4039 0.379905 18.0899 0.186066 17.8241 0.186066H17.284C17.0187 0.186066 16.7084 0.382122 16.5936 0.621281L12.3114 9.56745C12.1924 9.80415 12.3217 9.9736 12.5875 9.9736H13.5771C13.9678 9.9736 14.1468 9.79602 14.2525 9.57829C14.3587 9.36056 14.5946 8.88741 14.6397 8.79086C14.7008 8.66032 14.8889 8.58027 15.1542 8.58052L19.7618 8.58298C20.0273 8.58348 20.198 8.63397 20.2765 8.79086C20.3278 8.89308 20.5632 9.31869 20.679 9.55095C20.7958 9.78321 20.9918 9.9736 21.3723 9.9736H22.8083C23.0738 9.9736 23.1901 9.77213 23.0945 9.58494C22.9984 9.39726 18.5219 0.61734 18.5219 0.61734ZM15.8165 7.19877C15.5513 7.19877 15.4264 7.00123 15.538 6.76109L17.2254 3.14612C17.3377 2.90524 17.5192 2.90696 17.6288 3.1476L19.2716 6.76257C19.3812 7.0037 19.2539 7.20123 18.9889 7.20123L15.8165 7.19877ZM51.6108 0.686551C51.6108 0.773003 51.6108 9.3879 51.6108 9.56179C51.6108 9.80612 51.8278 9.9736 52.0936 9.9736H53.2637C53.529 9.9736 53.7462 9.80415 53.7462 9.53863V0.668571C53.7462 0.402811 53.5748 0.186312 53.3096 0.186312H52.0936C51.8278 0.186066 51.6108 0.349364 51.6108 0.686551ZM32.0013 6.24558C31.8488 6.02834 31.9325 5.78844 32.1865 5.71258C32.1865 5.71258 33.1975 5.40988 33.6815 4.9759C34.1657 4.54068 34.4091 3.91236 34.4091 3.09341C34.4091 2.55795 34.3155 2.10771 34.1291 1.74146C33.9426 1.3762 33.6754 1.07719 33.3276 0.848371C32.9798 0.618325 32.5636 0.449608 32.0788 0.343945C31.5934 0.238774 30.9385 0.207987 30.9385 0.207987C30.6729 0.195918 30.2392 0.186066 29.9742 0.186066H25.1147C24.8496 0.186066 24.6324 0.402565 24.6324 0.668324V9.53863C24.6324 9.80439 24.8494 9.9736 25.1147 9.9736H26.2646C26.5302 9.9736 26.7471 9.80415 26.7471 9.53863C26.7471 9.53863 26.7479 6.01061 26.7501 6.01061C26.7521 6.01061 26.7533 6.00864 26.7533 6.00618C26.7533 6.00322 28.9333 6.00076 28.9333 6.00076C29.1983 6.00076 29.5407 6.17809 29.6941 6.39533L31.9572 9.58174C32.1675 9.864 32.3675 9.9736 32.6328 9.9736H34.1359C34.4015 9.9736 34.4431 9.72336 34.3512 9.59331C34.2603 9.46401 32.0013 6.24558 32.0013 6.24558ZM31.0862 4.44413C30.7885 4.5126 30.4532 4.52639 30.4532 4.52639C30.1882 4.53797 29.7545 4.54733 29.489 4.54733H27.2363C26.9708 4.54733 26.7538 4.33009 26.7538 4.06483V2.26756C26.7538 2.00205 26.9708 1.78506 27.2363 1.78506H29.489C29.7545 1.78506 30.1882 1.79466 30.4532 1.80575C30.4532 1.80575 30.7885 1.81905 31.0862 1.88776C31.384 1.95648 31.6202 2.05229 31.7931 2.17618C31.9668 2.30081 32.0907 2.44687 32.1655 2.61485C32.2394 2.78282 32.2771 2.96583 32.2771 3.16558C32.2771 3.36434 32.2394 3.54833 32.1655 3.71606C32.0907 3.88404 31.9668 4.0301 31.7931 4.15472C31.6202 4.27935 31.384 4.3764 31.0862 4.44413ZM65.9781 0.186066C65.7128 0.186066 65.4983 0.36094 65.4983 0.616601C65.4983 0.73926 65.5012 6.29041 65.5012 6.29041C65.5012 6.55641 65.351 6.61676 65.1668 6.42563L59.4856 0.532859C59.3011 0.341729 59.0311 0.186066 58.6676 0.186066H57.5991C57.2632 0.186066 57.1161 0.365373 57.1161 0.546898C57.1161 0.727683 57.1161 9.43814 57.1161 9.61991C57.1161 9.80094 57.2886 9.9736 57.5543 9.9736H58.6245C58.8893 9.9736 59.075 9.82927 59.075 9.58494C59.075 9.46228 59.0804 3.60769 59.0804 3.60769C59.0804 3.34242 59.2304 3.28183 59.4141 3.47345L65.3379 9.63174C65.5261 9.82016 65.7547 9.9736 66.1613 9.9736H66.9653C67.231 9.9736 67.448 9.75661 67.448 9.4911V0.668571C67.448 0.402811 67.231 0.186312 66.9653 0.186312L65.9781 0.186066ZM42.8151 5.71849C42.6863 5.95026 42.4742 5.94953 42.3472 5.71726L39.5701 0.61734C39.4521 0.380644 39.21 0.186066 38.8726 0.186066H37.3664C37.1009 0.186066 36.8834 0.402565 36.8834 0.668324V9.5273C36.8834 9.79232 37.0578 9.9736 37.3664 9.9736H38.3026C38.5684 9.9736 38.7598 9.80612 38.7598 9.55021C38.7598 9.42755 38.7637 3.10696 38.7738 3.10696C38.7842 3.10696 42.24 9.54848 42.24 9.54848C42.3651 9.78223 42.6723 9.78321 42.7999 9.55046C42.7999 9.55046 46.284 3.12543 46.2944 3.12543C46.3052 3.12543 46.3013 9.36573 46.3013 9.55021C46.3013 9.80636 46.506 9.9736 46.7717 9.9736H47.85C48.1158 9.9736 48.3323 9.84134 48.3323 9.4911V0.668571C48.3323 0.402811 48.1158 0.186312 47.85 0.186312H46.4062C46.0377 0.186312 45.8161 0.37424 45.6843 0.605025L42.8151 5.71849Z" fill="#747474"/>
<path d="M0 5.07122C0 9.8507 4.8886 10.0931 5.86888 10.0931C9.11292 10.0931 10.4838 9.21647 10.5407 9.17854C10.7437 9.06377 10.9907 8.83224 10.9907 8.39851V5.09954C10.9907 4.7956 10.7432 4.54807 10.439 4.54807H6.36345C6.05878 4.54807 5.85878 4.7956 5.85878 5.09954V5.44116C5.85878 5.74559 6.05878 5.99386 6.36345 5.99386H8.72081C8.94839 5.99386 9.13336 6.17859 9.13336 6.40617C9.13336 6.40617 9.13114 7.85221 9.13114 7.94383C8.66539 8.13398 6.54424 8.75367 4.83983 8.34727C2.36745 7.7559 2.17484 5.71628 2.17484 5.10521C2.17484 4.5924 2.32854 2.02348 5.36494 1.76363C7.82279 1.55329 9.44124 2.54564 9.45725 2.55524C9.74616 2.70499 10.0452 2.59835 10.2063 2.29244C10.207 2.28998 10.5129 1.67102 10.5129 1.67102C10.6402 1.41634 10.5974 1.15231 10.2865 0.941475C10.2659 0.929652 8.54298 -0.00457001 5.86937 -0.00457001C0.164529 -0.00432371 0 4.55176 0 5.07122Z" fill="#747474"/>
</g>
<defs>
<clipPath id="clip0_1093_1648">
<rect width="67.5758" height="10" fill="white"/>
</clipPath>
</defs>
</svg>
