<svg width="59" height="12" viewBox="0 0 59 12" fill="none" xmlns="http://www.w3.org/2000/svg">
<g clip-path="url(#clip0_1093_1669)">
<mask id="mask0_1093_1669" style="mask-type:luminance" maskUnits="userSpaceOnUse" x="-4" y="-5" width="83" height="118">
<path d="M-3.33801 112.124H78.9663V-4.27824H-3.33801V112.124Z" fill="white"/>
</mask>
<g mask="url(#mask0_1093_1669)">
<mask id="mask1_1093_1669" style="mask-type:luminance" maskUnits="userSpaceOnUse" x="-1" y="0" width="77" height="12">
<path d="M-0.550293 12H75.5647V-5.14984e-05H-0.550293V12Z" fill="white"/>
</mask>
<g mask="url(#mask1_1093_1669)">
<mask id="mask2_1093_1669" style="mask-type:luminance" maskUnits="userSpaceOnUse" x="-1" y="0" width="77" height="12">
<path d="M-0.550293 -5.14984e-05H75.5647V12H-0.550293V-5.14984e-05Z" fill="white"/>
</mask>
<g mask="url(#mask2_1093_1669)">
<mask id="mask3_1093_1669" style="mask-type:luminance" maskUnits="userSpaceOnUse" x="-1" y="0" width="77" height="12">
<path d="M-0.550293 -5.14984e-05H75.5647V12H-0.550293V-5.14984e-05Z" fill="white"/>
</mask>
<g mask="url(#mask3_1093_1669)">
<mask id="mask4_1093_1669" style="mask-type:luminance" maskUnits="userSpaceOnUse" x="-24" y="-42" width="123" height="95">
<path d="M-23.2524 -41.006H98.2033V52.8463H-23.2524V-41.006Z" fill="white"/>
</mask>
<g mask="url(#mask4_1093_1669)">
<path d="M9.04353 6.27923C9.0294 4.85754 10.2058 4.16748 10.259 4.13464C9.59392 3.16356 8.56215 3.03137 8.198 3.0189C7.33043 2.93036 6.49113 3.54019 6.04841 3.54019C5.5978 3.54019 4.91812 3.03012 4.18566 3.04425C3.24119 3.05838 2.35741 3.60504 1.87353 4.45141C0.877095 6.18155 1.61954 8.72273 2.57731 10.1178C3.05661 10.8041 3.61407 11.569 4.34737 11.5395C5.06362 11.5125 5.33091 11.0839 6.19598 11.0839C7.05274 11.0839 7.30383 11.5395 8.05167 11.5249C8.8203 11.5125 9.30417 10.8365 9.76685 10.1461C10.3181 9.3604 10.5409 8.58887 10.5504 8.54771C10.5322 8.54231 9.05891 7.98069 9.04353 6.27923Z" fill="#747474"/>
<path d="M7.63006 2.10265C8.01749 1.62003 8.28064 0.963633 8.20789 0.299349C7.6496 0.323458 6.95372 0.686785 6.55049 1.15611C6.19465 1.57222 5.8783 2.25147 5.96019 2.89207C6.58665 2.93904 7.2285 2.57447 7.63006 2.10265Z" fill="#747474"/>
<path d="M16.8225 11.5403H15.124V3.88564H16.8225V11.5403ZM17.0137 1.60054C17.0137 1.904 16.914 2.15092 16.714 2.33923C16.5145 2.52796 16.2572 2.62233 15.9421 2.62233C15.6581 2.62233 15.4191 2.52505 15.2246 2.33133C15.0304 2.13762 14.9327 1.89402 14.9327 1.60054C14.9327 1.30705 15.0329 1.06595 15.2325 0.877216C15.4324 0.68891 15.6789 0.594546 15.9732 0.594546C16.2676 0.594546 16.5145 0.68891 16.714 0.877216C16.914 1.06595 17.0137 1.30705 17.0137 1.60054Z" fill="#747474"/>
<path d="M23.5033 4.09349C23.5033 3.47577 23.3037 3.00143 22.9051 2.67137C22.5064 2.34089 21.9506 2.17668 21.2373 2.17668C20.7651 2.17668 20.3822 2.20786 20.0883 2.27063V6.07429C20.3298 6.13664 20.6603 6.16824 21.0797 6.16824C21.8351 6.16824 22.4275 5.98492 22.8577 5.61826C23.2875 5.25162 23.5033 4.74323 23.5033 4.09349ZM25.1881 4.01243C25.1881 4.98808 24.8996 5.7696 24.3226 6.35698C23.5777 7.12312 22.4915 7.50597 21.0644 7.50597C20.6445 7.50597 20.3194 7.48103 20.0883 7.43198V11.5403H18.4001V1.06927C19.2091 0.922524 20.1328 0.849357 21.172 0.849357C22.516 0.849357 23.5295 1.13785 24.2116 1.71484C24.8626 2.28102 25.1881 3.04717 25.1881 4.01243Z" fill="#747474"/>
<path d="M32.6965 11.5403H30.9979V7.17922C30.9979 5.8045 30.4829 5.11736 29.4523 5.11736C28.6638 5.11736 28.1221 5.51602 27.8278 6.31333C27.7754 6.4817 27.7488 6.68621 27.7488 6.92774V11.5403H26.0507V0.371295H27.7488V4.97312H27.7808C28.3167 4.14255 29.0832 3.72643 30.0809 3.72643C30.7851 3.72643 31.3675 3.95755 31.8297 4.41939C32.4076 4.99721 32.6965 5.85314 32.6965 6.98759V11.5403Z" fill="#747474"/>
<path d="M39.3992 7.69178C39.3992 6.98883 39.2471 6.38524 38.9428 5.88183C38.5861 5.27282 38.0765 4.96853 37.4151 4.96853C36.7329 4.96853 36.2129 5.27282 35.8558 5.88183C35.5515 6.38524 35.3993 6.99921 35.3993 7.72337C35.3993 8.42631 35.5515 9.03033 35.8558 9.53374C36.2233 10.1427 36.7379 10.447 37.3989 10.447C38.0503 10.447 38.5595 10.1373 38.927 9.51795C39.2417 9.00372 39.3992 8.39514 39.3992 7.69178ZM41.163 7.6473C41.163 8.82331 40.8271 9.78898 40.1554 10.5447C39.452 11.3217 38.5175 11.7104 37.3523 11.7104C36.2287 11.7104 35.3332 11.3379 34.6669 10.5921C34.0001 9.84676 33.6671 8.9073 33.6671 7.77369C33.6671 6.58686 34.0105 5.61578 34.6989 4.86004C35.386 4.10429 36.3126 3.72642 37.4778 3.72642C38.6015 3.72642 39.5048 4.09931 40.1865 4.84424C40.8379 5.5688 41.163 6.50329 41.163 7.6473Z" fill="#747474"/>
<path d="M48.8177 11.5403H47.1188V7.14805C47.1188 5.79412 46.6041 5.11736 45.5736 5.11736C45.0689 5.11736 44.6586 5.30318 44.3435 5.67606C44.028 6.04852 43.8701 6.48708 43.8701 6.9905V11.5403H42.1715V6.07512C42.1715 5.40293 42.1503 4.67339 42.1079 3.88564H43.604L43.6834 5.06747H43.7304C43.9299 4.69957 44.2238 4.39404 44.6125 4.15251C45.0739 3.86817 45.589 3.72643 46.1556 3.72643C46.8698 3.72643 47.4634 3.95755 47.9356 4.41939C48.5238 4.98682 48.8177 5.83235 48.8177 6.956V11.5403Z" fill="#747474"/>
<path d="M54.9588 6.91027C54.9688 6.40602 54.8586 5.97078 54.6279 5.6033C54.3336 5.13065 53.8817 4.89454 53.2723 4.89454C52.7153 4.89454 52.2638 5.12566 51.9171 5.5875C51.6332 5.95498 51.4649 6.39604 51.4129 6.91027H54.9588ZM56.583 7.35175C56.583 7.65604 56.5622 7.91296 56.5202 8.12288H51.4129C51.4333 8.87904 51.6806 9.45643 52.1533 9.85508C52.5839 10.2122 53.141 10.3909 53.8236 10.3909C54.5801 10.3909 55.2681 10.27 55.8879 10.0284L56.156 11.207C55.4315 11.5212 54.5755 11.6783 53.5887 11.6783C52.4023 11.6783 51.4703 11.33 50.7935 10.6316C50.1159 9.93407 49.778 8.99792 49.778 7.82274C49.778 6.66917 50.0926 5.70931 50.7228 4.94276C51.3846 4.12508 52.2767 3.71603 53.4008 3.71603C54.5036 3.71603 55.3384 4.12507 55.9058 4.94359C56.3572 5.59416 56.583 6.39688 56.583 7.35175Z" fill="#747474"/>
</g>
</g>
</g>
</g>
<path d="M-3.3092 -4.25008V112.095H78.9376V-4.25008H-3.3092Z" stroke="#65A1BC" stroke-width="0.0944592"/>
</g>
</g>
<defs>
<clipPath id="clip0_1093_1669">
<rect width="58.0312" height="12" fill="white"/>
</clipPath>
</defs>
</svg>
